<svg id="Capa_1" enable-background="new 0 0 512 512" height="512" viewBox="0 0 512 512" width="512" xmlns="http://www.w3.org/2000/svg"><g><g><g><path d="m269.537 479.38c1.918.501 3.959-.148 5.206-1.689 13.85-17.106 27.836-47.258 37.174-83.016 7.442-28.494 10.564-55.317 9.646-76.021-.197-4.455-3.286-8.254-7.601-9.381-4.315-1.127-8.866.676-11.217 4.466-10.926 17.611-21.321 42.535-28.762 71.029-9.339 35.757-11.88 68.899-8.162 90.593.335 1.953 1.799 3.518 3.716 4.019z" fill="#26d192"/><path d="m311.915 394.675c-9.339 35.758-23.318 65.911-37.173 83.014-1.248 1.54-3.285 2.194-5.205 1.693s-3.377-2.068-3.712-4.021c-1.077-6.297-1.637-13.568-1.644-21.579 9.599-17.068 18.569-39.616 25.196-64.993 6.627-25.376 9.824-49.413 9.797-68.995 1.181-2.102 2.37-4.124 3.574-6.055 1.174-1.89 2.902-3.295 4.874-4.073 1.974-.787 4.186-.957 6.343-.394 4.313 1.126 7.402 4.927 7.6 9.381.918 20.709-2.208 47.524-9.65 76.022z" fill="#1ec186"/></g><g><path d="m323.432 511.998c1.982 0 3.793-1.144 4.611-2.95 9.078-20.05 14.991-52.759 14.991-89.715 0-29.449-3.757-56.191-9.877-75.991-1.317-4.261-5.265-7.156-9.725-7.156-4.459 0-8.407 2.895-9.724 7.155-6.121 19.8-9.88 46.542-9.88 75.992 0 36.957 5.916 69.665 14.995 89.715.816 1.806 2.627 2.95 4.609 2.95z" fill="#26d192"/><path d="m343.03 419.334c0 36.957-5.906 69.664-14.99 89.713-.818 1.806-2.624 2.953-4.608 2.953s-3.79-1.147-4.608-2.953c-2.633-5.821-5.012-12.714-7.044-20.463 4.975-18.939 7.956-43.023 7.956-69.25 0-26.228-2.981-50.292-7.956-69.232.611-2.332 1.251-4.589 1.928-6.762.658-2.125 1.975-3.921 3.686-5.172 1.712-1.26 3.809-1.984 6.037-1.984 4.457 0 8.407 2.896 9.724 7.156 6.123 19.805 9.875 46.54 9.875 75.994z" fill="#1ec186"/></g><g><path d="m299.3 174.158c-3.001-1.03-5.366-3.396-6.396-6.396-16.309-47.511-7.983-99.019 26.355-133.356 34.336-34.337 85.842-42.663 133.362-26.365 3.003 1.03 5.37 3.397 6.399 6.399 16.298 47.52 7.972 99.027-26.365 133.363-34.337 34.338-85.844 42.663-133.355 26.355z" fill="#23f1a8"/><path d="m432.655 147.8c-34.336 34.336-85.845 42.67-133.357 26.362-2.998-1.03-5.367-3.4-6.397-6.397-1.648-4.801-3.039-9.632-4.183-14.484 43.247 10.178 87.988.319 118.862-30.555 30.874-30.864 40.733-75.595 30.566-118.852 4.852 1.133 9.684 2.524 14.474 4.172 3.008 1.02 5.367 3.389 6.397 6.397 16.297 47.522 7.974 99.021-26.362 133.357z" fill="#26d192"/><path d="m382.68 95.312-31.946 31.946 87.143 14.948c-1.669 1.916-3.41 3.781-5.223 5.594-2.74 2.74-5.594 5.316-8.54 7.726l-86.762-14.886-34.645 34.645c-1.144-.361-2.277-.731-3.41-1.123-2.998-1.03-5.367-3.4-6.397-6.397-.392-1.133-.762-2.277-1.123-3.41l34.645-34.645-14.886-86.752c2.4-2.957 4.986-5.81 7.726-8.55 1.813-1.813 3.678-3.554 5.594-5.223l14.948 87.143 31.946-31.946-13.001-75.77c4.842-1.906 9.807-3.492 14.865-4.749l11.518 67.137 64.078-64.077c1.133.361 2.277.731 3.41 1.123 3.008 1.02 5.367 3.389 6.397 6.397.391 1.133.762 2.277 1.123 3.41l-64.077 64.077 67.137 11.517c-1.257 5.058-2.843 10.024-4.749 14.866z" fill="#26d192"/><g fill="#1ec186"><path d="m320.849 157.144-18.141 18.142c-1.144-.361-2.277-.731-3.41-1.123-2.998-1.03-5.367-3.4-6.397-6.397-.392-1.133-.762-2.277-1.123-3.41l8.798-8.798c6.778 1.019 13.556 1.555 20.273 1.586z"/><path d="m437.878 142.206c-1.669 1.916-3.41 3.781-5.223 5.594-2.74 2.74-5.594 5.316-8.54 7.726l-51.581-8.849c7.386-3.245 14.453-7.273 21.088-12.063z"/><path d="m460.14 17.853-18.141 18.141c-.031-6.717-.556-13.495-1.576-20.274l8.798-8.798c1.133.361 2.266.731 3.4 1.123 3.008 1.02 5.367 3.389 6.397 6.397.39 1.134.761 2.278 1.122 3.411z"/><path d="m463.199 93.448c-1.257 5.058-2.843 10.024-4.749 14.866l-34.686-5.954c2.905-4.615 5.439-9.426 7.634-14.371z"/></g></g><g><path d="m460.561 426.902c-1.013 3.006-3.387 5.38-6.393 6.393-40.437 13.631-84.161 6.436-113.357-22.761-29.196-29.196-36.391-72.918-22.769-113.363 1.013-3.008 3.388-5.383 6.396-6.396 40.443-13.62 84.146-6.406 113.342 22.79 29.196 29.197 36.41 72.901 22.781 113.337z" fill="#23f1a8"/><path d="m460.562 426.897c-1.02 3.008-3.389 5.388-6.398 6.397-3.873 1.308-7.788 2.421-11.703 3.338 8.705-36.973.278-75.224-26.125-101.627-26.393-26.393-64.644-34.83-101.627-26.136.907-3.925 2.019-7.829 3.327-11.703 1.02-3.008 3.389-5.378 6.397-6.387 40.445-13.629 84.145-6.408 113.341 22.788 29.206 29.195 36.418 72.895 22.788 113.33z" fill="#26d192"/><path d="m461.654 423.487c-.34 1.143-.711 2.277-1.092 3.41-1.02 3.008-3.389 5.388-6.398 6.397-1.143.391-2.297.752-3.451 1.102l-28.783-28.783-72.638 12.465c-2.946-2.318-5.769-4.832-8.478-7.541-1.865-1.865-3.647-3.801-5.336-5.779l73.071-12.537-25.384-25.373-60.255 10.343c-.443.072-.886.103-1.319.103-.989 0-1.957-.185-2.843-.556-1.452-3.678-2.678-7.438-3.688-11.27 1.123-1.803 2.977-3.121 5.233-3.513l49.49-8.489-52.848-52.848c.35-1.154.721-2.308 1.102-3.451 1.02-3.008 3.389-5.378 6.397-6.387 1.133-.381 2.277-.752 3.42-1.102l52.859 52.859 9.498-55.362c5.079 1.205 10.044 2.792 14.865 4.759l-10.982 63.985 25.373 25.384 12.537-73.06c1.978 1.679 3.904 3.461 5.769 5.326 2.699 2.699 5.223 5.532 7.541 8.468l-12.465 72.648z" fill="#26d192"/><g fill="#1ec186"><path d="m343.76 305.583c-6.727-.062-13.526.453-20.315 1.545l-6.511-6.511c.34-1.154.711-2.308 1.102-3.451 1.02-3.008 3.389-5.378 6.397-6.387 1.133-.381 2.277-.752 3.42-1.102z"/><path d="m405.077 291.933-5.13 29.875c-4.595-2.957-9.395-5.501-14.371-7.634l4.636-27.001c5.078 1.206 10.043 2.792 14.865 4.76z"/><path d="m445.316 322.035-7.685 44.813c-3.111-7.469-7.129-14.577-12.053-21.16l6.428-37.447c1.978 1.679 3.904 3.461 5.769 5.326 2.699 2.699 5.223 5.532 7.541 8.468z"/><path d="m461.654 423.487c-.34 1.143-.711 2.277-1.092 3.41-1.02 3.008-3.389 5.388-6.398 6.397-1.143.391-2.297.762-3.451 1.102l-6.511-6.511c1.092-6.789 1.617-13.578 1.556-20.294z"/></g></g><g><path d="m283.506 149.952c-1.765 2.691-4.727 4.393-7.941 4.562-35.019 1.847-68.07-13.383-84.997-42.848-16.926-29.464-13.443-65.68 5.786-95.009 1.766-2.693 4.729-4.395 7.945-4.564 35.022-1.837 68.062 13.398 84.988 42.862 16.927 29.465 13.453 65.677-5.781 94.997z" fill="#23f1a8"/><path d="m283.505 149.953c-1.762 2.689-4.729 4.389-7.943 4.564-3.08.165-6.14.196-9.179.093 14.979-27.763 16.514-60.235 1.071-87.112-15.432-26.877-44.257-41.918-75.79-42.969 1.432-2.678 2.998-5.295 4.687-7.871 1.772-2.689 4.729-4.399 7.943-4.564 35.026-1.834 68.064 13.392 84.99 42.856 16.926 29.473 13.454 65.684-5.779 95.003z" fill="#26d192"/><path d="m269.247 118.831 16.153 28.124c-.608 1.01-1.246 2.009-1.896 2.998-1.762 2.689-4.729 4.389-7.943 4.564-1.195.062-2.39.113-3.575.124l-16.143-28.114-59.04-5.573c-2.266-2.915-4.347-6.016-6.233-9.292-1.102-1.916-2.112-3.853-3.039-5.821 1.288-.68 2.781-1.01 4.337-.865l54.548 5.141-13.238-23.045-52.694-4.965c-.711-5.161-.948-10.374-.711-15.597l43.978 4.152-29.298-51.004c.608-1.01 1.246-2.009 1.895-2.998 1.772-2.689 4.729-4.399 7.943-4.564 1.195-.062 2.38-.103 3.554-.124l29.298 50.994 18.574-40.095c4.626 2.442 9.014 5.264 13.104 8.478l-22.252 48.027 13.248 23.045 25.126-54.229c1.545 2.163 2.988 4.419 4.337 6.758 1.885 3.276 3.513 6.645 4.893 10.065z" fill="#26d192"/><g fill="#1ec186"><path d="m217.47 28.701c-6.428-1.926-13.145-3.214-20.016-3.822l-2.998-5.223c.608-1.01 1.246-2.009 1.895-2.998 1.772-2.689 4.729-4.399 7.943-4.564 1.195-.062 2.38-.103 3.554-.124z"/><path d="m268.825 31.348-10.703 23.097c-3.585-4.121-7.562-7.84-11.868-11.136l9.467-20.439c4.625 2.442 9.014 5.264 13.104 8.478z"/><path d="m275.768 130.194 9.632 16.761c-.608 1.01-1.246 2.009-1.896 2.998-1.762 2.689-4.729 4.389-7.943 4.564-1.195.062-2.39.113-3.575.124l-2.986-5.213c2.936-6.253 5.202-12.702 6.768-19.234z"/><path d="m294.178 65.015-16.267 35.129c-.824-8.108-2.812-16.081-6.037-23.735l13.073-28.217c1.545 2.163 2.988 4.419 4.337 6.758 1.886 3.276 3.513 6.645 4.894 10.065z"/></g></g><g><path d="m130.428 72.121c1.257-1.532 3.29-2.207 5.205-1.694 21.26 5.696 50.299 21.867 78.874 45.304 22.77 18.676 41.064 38.539 52.492 55.828 2.459 3.72 2.194 8.609-.634 12.057-2.828 3.448-7.57 4.665-11.699 2.981-19.191-7.824-42.252-21.876-65.022-40.552-28.575-23.437-50.113-48.753-59.859-68.488-.877-1.777-.614-3.903.643-5.436z" fill="#26d192"/><path d="m214.505 115.733c-28.575-23.437-57.609-39.612-78.872-45.303-1.915-.512-3.947.156-5.205 1.69s-1.516 3.658-.639 5.435c2.831 5.727 6.652 11.938 11.355 18.423 17.799 8.164 38.31 21.132 58.589 37.765s36.995 34.199 48.485 50.056c2.191 1.007 4.341 1.943 6.451 2.797 2.061.839 4.284.96 6.337.43 2.06-.524 3.95-1.687 5.363-3.41 2.827-3.446 3.092-8.337.633-12.057-11.432-17.292-29.724-37.148-52.497-55.826z" fill="#1ec186"/></g><g><path d="m399.095 238.462c19.913-43.001 1.238-94.017-41.751-113.989-40.313-18.729-87.699-3.512-109.952 33.875-2.497 4.196-7.591 6.058-12.206 4.462-41.119-14.221-87.147 4.711-105.876 45.025-19.972 42.989-1.342 94.021 41.61 114.041l140.847 65.439c8.257 3.836 18.059.252 21.895-8.004z" fill="#fb4a59"/><path d="m285.739 271.827 10.991-10.991c-8.764-7.413-26.305-20.278-51.662-29.642-4.945-1.823-10.343-3.554-16.163-5.089-1.484-1.514-2.998-3.039-4.564-4.574-15.824-15.484-37.849-33.471-65.983-48.171-4.574 3.163-8.87 6.779-12.795 10.827 22.304 10.951 40.795 24.22 55.383 36.819-22.314-2.308-48.624-.999-78.242 7.52-.948 5.141-1.411 10.312-1.411 15.442 0 .36 0 .721.01 1.082 34.532-11.044 67.837-12.754 99.485-5.11 12.239 12.889 21.237 24.785 27.041 33.207h18.499c-3.086-4.989-8.558-13.275-16.519-23.338 16.934 7.563 29.134 16.417 35.93 22.018z" fill="#f82f40"/><path d="m349.273 222.776c-16.008.756-31.796 7.246-44.021 19.471-7.243 7.243-12.456 15.741-15.673 24.791-8.265-3.668-17.411-5.711-27.037-5.711-17.289 0-33.041 6.575-44.896 17.36h75.716z" fill="#fb4a59"/><path d="m399.091 238.466-65.427 140.846c-3.843 8.252-13.64 11.837-21.902 8.005l-11.332-5.264c1.01-1.154 1.885-2.472 2.565-3.946l65.437-140.846c19.913-43 1.236-94.014-41.753-113.99-5.728-2.658-11.6-4.636-17.513-5.954 3.977-.567 7.994-.855 12.043-.855 12.115 0 24.426 2.575 36.139 8.015 42.989 19.965 61.656 70.979 41.743 113.989z" fill="#f82f40"/></g></g><g><g><path d="m296.126 257.34c-1.96 0-3.92-.74-5.425-2.224-.459-.446-20.589-19.756-55.527-31.328-46.997-15.565-97.221-10.533-149.271 14.959-3.833 1.875-8.461.291-10.337-3.541-1.877-3.832-.292-8.46 3.54-10.338 69.89-34.227 126.51-27.317 161.696-15.492 38.318 12.877 59.853 33.853 60.751 34.739 3.036 2.998 3.067 7.89.069 10.927-1.509 1.53-3.503 2.298-5.496 2.298z" fill="#c21d2c"/></g><g><path d="m81.167 266.1c-9.05 2.104-18.092-3.527-20.195-12.577l-6.409-27.574c-2.104-9.05 3.527-18.092 12.577-20.195 9.05-2.104 18.092 3.527 20.195 12.577l6.409 27.574c2.104 9.049-3.527 18.091-12.577 20.195z" fill="#fee265"/><path d="m91.983 238.343c-1.823-7.747-8.726-12.96-16.359-12.96-1.257 0-2.545.144-3.822.443-8.973 2.081-14.588 10.992-12.62 19.965l-4.615-19.841c-2.112-9.055 3.523-18.09 12.568-20.192 1.288-.299 2.575-.443 3.832-.443 7.654 0 14.567 5.254 16.37 13.011z" fill="#fdd330"/></g><g><path d="m263.154 266.673c-2.668 0-5.263-1.384-6.694-3.858-.151-.261-15.449-26.366-45.673-54.378-27.694-25.667-74.022-58.285-137.458-67.917-4.218-.641-7.12-4.58-6.479-8.799s4.58-7.122 8.799-6.479c67.55 10.258 116.71 44.949 146.055 72.245 31.774 29.556 47.481 56.464 48.134 57.595 2.134 3.695.868 8.421-2.828 10.555-1.216.702-2.545 1.036-3.856 1.036z" fill="#e22334"/></g><g><path d="m217.648 286.412c-2.1 0-4.192-.851-5.717-2.527-2.871-3.156-2.641-8.043.516-10.915 13.73-12.491 31.521-19.371 50.096-19.371 9.628 0 19.003 1.814 27.862 5.391 3.957 1.598 5.869 6.1 4.272 10.057-1.598 3.957-6.101 5.871-10.056 4.272-7.013-2.832-14.441-4.267-22.077-4.267-14.72 0-28.818 5.451-39.697 15.349-1.482 1.347-3.344 2.011-5.199 2.011z" fill="#f82f40"/></g><g><g><path d="m285.787 293.994c-.123 0-.246-.003-.371-.009-4.262-.202-7.554-3.82-7.352-8.082.876-18.543 8.592-35.987 21.725-49.12 13.134-13.134 30.578-20.85 49.12-21.725 4.273-.198 7.881 3.091 8.082 7.353.202 4.263-3.091 7.881-7.353 8.082-14.69.694-28.513 6.808-38.923 17.216-10.407 10.407-16.521 24.23-17.216 38.923-.196 4.139-3.613 7.362-7.712 7.362z" fill="#f82f40"/></g></g><g><path d="m57.992 162.173c-9.073-2.004-14.803-10.983-12.8-20.055l6.105-27.643c2.004-9.073 10.983-14.803 20.055-12.8 9.073 2.004 14.803 10.983 12.8 20.055l-6.105 27.643c-2.004 9.073-10.983 14.803-20.055 12.8z" fill="#fee265"/><path d="m84.556 118.09c0 1.205-.134 2.421-.402 3.636l-4.461 20.181c.268-1.226.402-2.431.402-3.637 0-7.726-5.357-14.68-13.197-16.411-9.076-2.009-18.049 3.729-20.058 12.784l4.461-20.171c1.999-9.076 10.982-14.804 20.047-12.795 7.861 1.733 13.208 8.697 13.208 16.413z" fill="#fdd330"/></g></g></g></svg>